<svg xmlns="http://www.w3.org/2000/svg" xmlns:xlink="http://www.w3.org/1999/xlink" fill="none" version="1.1" width="26" height="26" viewBox="0 0 26 26"><g><g><ellipse cx="13" cy="13" rx="13" ry="13" fill="#A71818" fill-opacity="0"/></g><g><path d="M13.153489,4.2810161C15.853861,2.3389639300000002,19.577999,2.61281016,21.982141,5.050247000000001C23.274002,6.3610168,24,8.1476846,24,10.0112758C24,11.8748655,23.273491,13.661534,21.983166,14.971278L14.922187,22.171282C14.420842,22.699369,13.725736,22.998814,12.998466,23.000004C12.274601,22.999445,11.5823364,22.702705,11.0819082,22.178463L4.0142790999999995,14.965638C2.72497684,13.654867,2,11.8697367,2,10.0081983C2,8.1466599,2.72497672,6.3610177,4.014791000000001,5.0497346C6.4184189,2.61281046,10.1430702,2.3389641599999997,12.843443,4.2810162L12.997953,4.3958881000000005L13.153489,4.2810161ZM20.890324,6.1312733C18.860697,4.0738362,15.634372,4.0005029,13.519814,5.9640939L12.997952,6.4481966L12.477115,5.9640939C10.3620453,4.0005029,7.1357193,4.0738362,5.1071148,6.1307604C4.1017661,7.1522989,3.5348824,8.549222499999999,3.5348824,10.007685200000001C3.5348824,11.4666605,4.1017661,12.8635836,5.1081381,13.886147L12.183952,21.107689C12.400883,21.334871,12.694045,21.461536,12.998465,21.461536C13.302884,21.461536,13.596045,21.334869,13.820139,21.099995L20.889303,13.891277C21.896698,12.8697367,22.464603,11.4717894,22.464603,10.0112758C22.464603,8.5512753,21.896698,7.1528125,20.890324,6.1312733L20.890324,6.1312733Z" fill="#666666" fill-opacity="1" style="mix-blend-mode:passthrough"/></g></g></svg>