<svg xmlns="http://www.w3.org/2000/svg" xmlns:xlink="http://www.w3.org/1999/xlink" fill="none" version="1.1" width="26" height="26" viewBox="0 0 26 26"><g><g><ellipse cx="13" cy="13" rx="13" ry="13" fill="#A71818" fill-opacity="0"/></g><g><path d="M13.012771,3C19.688881,3,24,8.0848203,24,12.7483454C24,18.305231,19.273602,23,13.013792,23C10.9987001,23,9.411146200000001,22.620201,7.7076392,21.732212L5.5857909,22.880886C4.9202237,23.073715,4.377246400000001,22.999023,3.9573720999999997,22.655838C3.5369868,22.312651,3.355654,21.861092,3.4133739,21.301155C3.652455,20.490456,3.8891245999999997,19.679106,4.1233809,18.86712C3.4128628,18.021112000000002,2,16.068417,2,12.7483454C2,8.0848203,6.3371725,3,13.012771,3ZM12.982123,4.4645219C7.7479925,4.4645219,3.5323892,8.3040099,3.5323892,13.007565C3.5323892,14.777685,4.1279778,16.465791,5.2236359,17.885889L5.3528678,18.048939L5.7890875,18.586906L4.903878000000001,21.533037C4.903878000000001,21.533037,4.9061091,21.54188,4.9061091,21.54188C4.9061091,21.54188,4.915626,21.541824,4.915626,21.541824L7.6310191,20.081205L8.271558299999999,20.415119C9.6915727,21.15519,11.3031349,21.550608,12.982123,21.550608C18.216253,21.550608,22.431856,17.711121,22.431856,13.007565C22.431856,8.3040109,18.216253,4.4645219,12.982123,4.4645219ZM8.3849549,11.7871313C9.090218100000001,11.7871313,9.6619458,12.3335381,9.6619458,13.007565C9.6619458,13.681594,9.090218100000001,14.228001,8.3849549,14.228001C7.6796923,14.228001,7.1079645,13.681594,7.1079645,13.007565C7.1079645,12.3335381,7.6796923,11.7871313,8.3849549,11.7871313ZM12.762991,11.7871313C13.468254,11.7871313,14.039982,12.3335381,14.039982,13.007565C14.039982,13.681594,13.468254,14.228001,12.762991,14.228001C12.057727,14.228001,11.4859991,13.681594,11.4859991,13.007565C11.4859991,12.3335381,12.057727,11.7871313,12.762991,11.7871313ZM17.141537,11.7871313C17.846797000000002,11.7871313,18.418528,12.3335381,18.418528,13.007565C18.418528,13.681594,17.846797000000002,14.228001,17.141537,14.228001C16.436273999999997,14.228001,15.864546,13.681594,15.864546,13.007565C15.864546,12.3335381,16.436273999999997,11.7871313,17.141537,11.7871313Z" fill="#666666" fill-opacity="1" style="mix-blend-mode:passthrough"/></g></g></svg>