<svg xmlns="http://www.w3.org/2000/svg" xmlns:xlink="http://www.w3.org/1999/xlink" fill="none" version="1.1" width="60" height="60" viewBox="0 0 60 60"><defs><clipPath id="master_svg0_107_7112"><rect x="66" y="44.88235306739807" width="10.666666984558105" height="12.941177368164062" rx="0"/></clipPath><clipPath id="master_svg1_107_7110"><rect x="60.66666793823242" y="41" width="18.666667938232422" height="22" rx="0"/></clipPath></defs><g><g><g><g><ellipse cx="30" cy="30" rx="30" ry="30" fill="#FFFFFF" fill-opacity="1"/></g></g></g><g transform="matrix(-1,0,0,-1,84,82)"><g transform="matrix(-1,0,0,1,132,0)" clip-path="url(#master_svg0_107_7112)"><rect x="66" y="44.88235306739807" width="10.666666984558105" height="12.941177368164062" rx="0" fill="#FFFFFF" fill-opacity="1"/><g><path d="M76.666667,51.34972166739807L70.3372741,44.88235306739807L66,44.88235306739807L72.3293948,51.34972166739807L66,57.82353206739807L70.3372741,57.82353206739807L76.666667,51.34972166739807Z" fill="#000000" fill-opacity="0.800000011920929" style="mix-blend-mode:passthrough"/></g></g><g transform="matrix(-1,0,0,1,121.33333587646484,0)" clip-path="url(#master_svg1_107_7110)"><g><path d="M79.33333593823242,51.994527L68.25689793823243,41L60.66666793823242,41L71.74310893823242,51.994527L60.66666793823242,63.000006L68.25689793823243,63.000006L79.33333593823242,51.994527Z" fill="#000000" fill-opacity="1" style="mix-blend-mode:passthrough"/></g></g></g></g></svg>