<svg xmlns="http://www.w3.org/2000/svg" xmlns:xlink="http://www.w3.org/1999/xlink" fill="none" version="1.1" width="60.903717041015625" height="69.3831787109375" viewBox="0 0 60.903717041015625 69.3831787109375"><defs><filter id="master_svg0_170_03147" filterUnits="objectBoundingBox" color-interpolation-filters="sRGB" x="0" y="0" width="1" height="1"><feFlood flood-opacity="0" result="BackgroundImageFix"/><feBlend mode="normal" in="SourceGraphic" in2="BackgroundImageFix" result="shape"/><feGaussianBlur in="BackgroundImageFix" stdDeviation="5"/><feComposite in2="SourceAlpha" operator="in" result="effect1_foregroundBlur"/><feBlend mode="normal" in="SourceGraphic" in2="effect1_foregroundBlur" result="shape"/></filter><filter id="master_svg1_170_03146" filterUnits="objectBoundingBox" color-interpolation-filters="sRGB" x="-0.7692307692307693" y="-0.36363636363636365" width="2.5384615384615383" height="1.9090909090909092"><feFlood flood-opacity="0" result="BackgroundImageFix"/><feColorMatrix in="SourceAlpha" type="matrix" values="0 0 0 0 0 0 0 0 0 0 0 0 0 0 0 0 0 0 127 0"/><feOffset dy="4" dx="0"/><feGaussianBlur stdDeviation="5"/><feColorMatrix type="matrix" values="0 0 0 0 0 0 0 0 0 0 0 0 0 0 0 0 0 0 0.30000001192092896 0"/><feBlend mode="normal" in2="BackgroundImageFix" result="effect1_dropShadow"/><feBlend mode="normal" in="SourceGraphic" in2="effect1_dropShadow" result="shape"/></filter><linearGradient x1="0.5" y1="-0.2343657910823822" x2="0.5" y2="1" id="master_svg2_170_02891"><stop offset="18.526434898376465%" stop-color="#43FF62" stop-opacity="1"/><stop offset="93.55576038360596%" stop-color="#5F33FF" stop-opacity="1"/></linearGradient></defs><g><g filter="url(#master_svg0_170_03147)"><ellipse cx="30.903717041015625" cy="30.716672897338867" rx="30" ry="29.999998092651367" fill="#FFFFFF" fill-opacity="0.10000000149011612"/></g><g filter="url(#master_svg1_170_03146)"><path d="M15.714936141015626,28.9997158046875C14.767208161015624,29.7944148046875,14.760741111015625,31.2501868046875,15.701370841015624,32.0532738046875L36.60508704101562,49.9003828046875C37.90320404101563,51.0086858046875,39.903717041015625,50.0862198046875,39.903717041015625,48.3793408046875L39.903717041015625,40.1969848046875C39.903717041015625,39.5913908046875,39.629320041015625,39.0184098046875,39.157497041015624,38.6387688046875L29.119574041015625,30.5619988046875C28.096859041015627,29.7390958046875,28.130772041015625,28.1707498046875,29.188103041015623,27.3928258046875L30.090914041015626,26.7285898046875C31.361231041015625,25.7939628046875,33.163032041015626,26.6287098046875,33.27143504101562,28.2020758046875L33.33636704101562,29.1445218046875C33.378855041015626,29.7612078046875,33.704115041015626,30.3235928046875,34.21745904101563,30.6679578046875L36.78953904101563,32.3933738046875C38.11825904101563,33.284711804687504,39.903717041015625,32.332462804687495,39.903717041015625,30.7324678046875L39.903717041015625,13.003820404687499C39.903717041015625,11.3052788046875,37.92017704101562,10.3799350046875,36.618654041015624,11.4713018046875L15.714936141015626,28.9997158046875Z" fill="url(#master_svg2_170_02891)" fill-opacity="1"/></g></g></svg>