<svg xmlns="http://www.w3.org/2000/svg" xmlns:xlink="http://www.w3.org/1999/xlink" fill="none" version="1.1" width="60.9036865234375" height="69.3831787109375" viewBox="0 0 60.9036865234375 69.3831787109375"><defs><filter id="master_svg0_170_03238" filterUnits="objectBoundingBox" color-interpolation-filters="sRGB" x="0" y="0" width="1" height="1"><feFlood flood-opacity="0" result="BackgroundImageFix"/><feBlend mode="normal" in="SourceGraphic" in2="BackgroundImageFix" result="shape"/><feGaussianBlur in="BackgroundImageFix" stdDeviation="5"/><feComposite in2="SourceAlpha" operator="in" result="effect1_foregroundBlur"/><feBlend mode="normal" in="SourceGraphic" in2="effect1_foregroundBlur" result="shape"/></filter><filter id="master_svg1_170_03239" filterUnits="objectBoundingBox" color-interpolation-filters="sRGB" x="-0.7692307692307693" y="-0.36363636363636365" width="2.5384615384615383" height="1.9090909090909092"><feFlood flood-opacity="0" result="BackgroundImageFix"/><feColorMatrix in="SourceAlpha" type="matrix" values="0 0 0 0 0 0 0 0 0 0 0 0 0 0 0 0 0 0 127 0"/><feOffset dy="4" dx="0"/><feGaussianBlur stdDeviation="5"/><feColorMatrix type="matrix" values="0 0 0 0 0 0 0 0 0 0 0 0 0 0 0 0 0 0 0.30000001192092896 0"/><feBlend mode="normal" in2="BackgroundImageFix" result="effect1_dropShadow"/><feBlend mode="normal" in="SourceGraphic" in2="effect1_dropShadow" result="shape"/></filter></defs><g transform="matrix(-1,0,0,1,120,0)"><g filter="url(#master_svg0_170_03238)"><ellipse cx="90" cy="30.716672897338867" rx="30" ry="29.999998092651367" fill="#FFFFFF" fill-opacity="0.10000000149011612"/></g><g filter="url(#master_svg1_170_03239)"><path d="M74.8112191,28.9997158046875C73.86349112,29.7944148046875,73.85702407,31.2501868046875,74.7976538,32.0532738046875L95.70137,49.9003828046875C96.999487,51.0086858046875,99,50.0862198046875,99,48.3793408046875L99,40.1969848046875C99,39.5913908046875,98.725603,39.0184098046875,98.25378,38.6387688046875L88.215857,30.5619988046875C87.193142,29.7390958046875,87.22705500000001,28.1707498046875,88.284386,27.3928258046875L89.187197,26.7285898046875C90.457514,25.7939628046875,92.259315,26.6287098046875,92.367718,28.2020758046875L92.43265,29.1445218046875C92.475138,29.7612078046875,92.800398,30.3235928046875,93.313742,30.6679578046875L95.885822,32.3933738046875C97.214542,33.284711804687504,99,32.332462804687495,99,30.7324678046875L99,13.003820404687499C99,11.3052788046875,97.01646,10.3799350046875,95.71493699999999,11.4713018046875L74.8112191,28.9997158046875Z" fill="#FFFFFF" fill-opacity="0.800000011920929"/></g></g></svg>