<svg xmlns="http://www.w3.org/2000/svg" xmlns:xlink="http://www.w3.org/1999/xlink" fill="none" version="1.1" width="50.000002607306016" height="50.000002607306016" viewBox="0 0 50.000002607306016 50.000002607306016"><g transform="matrix(-1,-5.2146120310681e-8,5.2146120310681e-8,-1,99.99999739269384,100.00000782191805)"><path d="M75.000286,100.00000260730602C88.80676700000001,100.00000260730602,100,88.80702460730602,100,75.00000260730602C100,61.19298360730602,88.80677800000001,50.000002607306016,75.000286,50.000002607306016C61.192535,50.000002607306016,50,61.192925607306016,50,75.00000260730602C50,88.80708160730602,61.192534,100.00000260730602,75.000286,100.00000260730602ZM74.99902,52.50537460730602C87.395985,52.50537460730602,97.48189500000001,62.632947607306015,97.48189500000001,75.01960060730602C97.48189500000001,87.40607760730602,87.395992,97.48245160730602,74.99902,97.48245160730602C62.601937,97.48245160730602,52.5161438,87.40608060730602,52.5161438,75.01960260730601C52.5161455,62.632947607306015,62.601938000000004,52.50537460730602,74.99902,52.50537460730602ZM63.745401,76.24228960730602L84.154594,76.24228960730602L76.723839,84.211180607306C76.236378,84.69928960730601,76.236378,85.49000760730601,76.723839,85.978178607306C77.212563,86.46634560730601,78.003376,86.46634560730601,78.490835,85.978178607306L88.683453,74.96581160730602L78.647652,63.876497607306014C78.403032,63.632384607306015,78.08336299999999,63.50912260730601,77.764154,63.50912260730601C77.444487,63.50912260730601,77.124702,63.632384607306015,76.880657,63.876497607306014C76.392447,64.36351660730601,76.392447,65.15406660730602,76.880657,65.64372960730601L84.23447,73.74289160730602L63.745342,73.74289160730602C63.055208,73.74289160730602,62.495687000000004,74.30191260730601,62.495687000000004,74.99270460730602C62.495746,75.68223260730602,63.055324,76.24228960730602,63.745401,76.24228960730602Z" fill="#000000" fill-opacity="1" style="mix-blend-mode:passthrough"/></g></svg>