<svg xmlns="http://www.w3.org/2000/svg" xmlns:xlink="http://www.w3.org/1999/xlink" fill="none" version="1.1" width="21" height="15" viewBox="0 0 21 15"><g><path d="M20.883331,7.1249995C19.716665,4.125,15.516667,0,10.5,0C5.4833331,0,1.2833333,4.125,0.11666665,7.1249995L0,7.5L0.11666665,7.8750005C1.2833333,10.875,5.4833331,15,10.5,15C15.516667,15,19.716665,10.875,20.883331,7.8750005L21,7.5L20.883331,7.1249995ZM10.5,11.375001C8.5166674,11.375001,7.0000005,9.750001,7.0000005,7.625C7.0000005,5.500001,8.5166674,3.8750007,10.5,3.8750007C12.483332,3.8750007,14.000001,5.500001,14.000001,7.625C14.000001,9.750001,12.483332,11.375001,10.5,11.375001Z" fill="#333333" fill-opacity="1" style="mix-blend-mode:passthrough"/></g></svg>