<svg xmlns="http://www.w3.org/2000/svg" xmlns:xlink="http://www.w3.org/1999/xlink" fill="none" version="1.1" width="26" height="26" viewBox="0 0 26 26"><g><g><ellipse cx="13" cy="13" rx="13" ry="13" fill="#A71818" fill-opacity="0"/></g><g><path d="M23.62174,10.1558657C23.405592,9.899187999999999,23.081371,9.6938453,22.757153,9.6425099L16.813105,8.8211403L14.165301,3.68758225C14.003191,3.4822399,13.787044,3.27689767,13.516859,3.12289097C13.192638,2.968884254,12.814382,2.968884254,12.49016,3.071555436C12.165939,3.17422663,11.8957548,3.43090451,11.7336454,3.73891807L9.0858421,8.8724761L3.1417937,9.6938453C2.87160969,9.7451816,2.60142571,9.8478522,2.38527843,10.053194999999999C1.84491041,10.5665512,1.89894716,11.3879204,2.38527843,11.8499403L6.7082233,15.854116L5.6815238,21.50103C5.6274867,21.757708,5.6815238,22.065722,5.8436344,22.322399C6.1678553,22.938425,7.032444,23.195105,7.6808863,22.835754L13.030529,20.166304L18.380173,22.835754C18.596321,22.938425,18.812466,22.989759,19.028614,22.989759L19.244762,22.989759C19.62302,22.938425,19.893204,22.733082,20.10935,22.476404C20.325499,22.219727,20.379534,21.860378,20.325499,21.501028L19.298798,15.854114L23.621742,11.8499393C23.837891,11.6445971,24,11.3879194,24,11.1312418C23.945963,10.7718916,23.837891,10.4638796,23.62174,10.1558657ZM17.947877,14.827403C17.623656,15.135418,17.461544,15.546102,17.569618,15.956786L18.54228,21.193014L12.922454,18.420894L7.3026271,21.193014L8.2752891,15.956785C8.3293262,15.546102,8.221252,15.135417,7.8970313,14.827403L3.8983079,11.1312408L9.4640994,10.361207C9.8963933,10.3098712,10.2746515,10.0531931,10.490798,9.642509L12.922454,4.8683004L15.408148,9.6425099C15.624294,10.0018592,16.002552,10.3098717,16.434846999999998,10.361207499999999L22.000635,11.1312418L17.947877,14.827403Z" fill="#666666" fill-opacity="1" style="mix-blend-mode:passthrough"/></g></g></svg>