<svg xmlns="http://www.w3.org/2000/svg" xmlns:xlink="http://www.w3.org/1999/xlink" fill="none" version="1.1" width="48" height="48" viewBox="0 0 48 48"><defs><linearGradient x1="0.5" y1="-0.24137930572032928" x2="0.5" y2="1.2931034564971924" id="master_svg0_6_0317"><stop offset="0%" stop-color="#E279FF" stop-opacity="1"/><stop offset="100%" stop-color="#0D62F4" stop-opacity="1"/></linearGradient></defs><g><g><g><ellipse cx="24" cy="24" rx="24" ry="24" fill="url(#master_svg0_6_0317)" fill-opacity="1"/></g></g><g><g><path d="M24.51254957220459,30.510229C22.96189557220459,28.930902,22.96189557220459,26.441459000000002,24.49894857220459,24.862130999999998C24.02286857220459,24.728292,23.53318857220459,24.621218,23.00270157220459,24.540914C25.70954557220459,23.778018,27.69546957220459,21.315341,27.69546957220459,18.3976054C27.69546957220459,14.8642004,24.784595572204587,12,21.193605472204588,12C17.61621947220459,12,14.70534347220459,14.8642004,14.70534347220459,18.3976054C14.70534347220459,21.3019581,16.67766567220459,23.751253,19.37090727220459,24.52753C13.33151687220459,25.370729,11.40000057220459,30.389771,11.40000057220459,32.999674C11.40000057220459,34.405005,11.79446518220459,36.6,21.18000217220459,36.6C25.66873857220459,36.6,28.10353557220459,36.118173999999996,29.42295157220459,35.462351L24.51254957220459,30.510229Z" fill="#FFFFFF" fill-opacity="1" style="mix-blend-mode:passthrough"/></g><g><path d="M36.12918007220459,30.095323531469727L30.96033387220459,35.315128631469726L25.79148817220459,30.095323531469727C24.36325398220459,28.636456031469727,24.36325398220459,26.334388531469727,25.79148817220459,24.875519831469727C26.45799767220459,24.179546441469725,27.39655137220459,23.791406631469727,28.37591127220459,23.791406631469727C29.35527087220459,23.791406631469727,30.29382567220459,24.179545371469725,30.96033387220459,24.875519831469727C31.64044617220459,24.179546441469725,32.56539777220459,23.791406631469727,33.54475877220459,23.791406631469727C34.52411847220459,23.791406631469727,35.44907007220459,24.179545371469725,36.12918307220459,24.875519831469727C37.557417072204586,26.334387531469726,37.557417072204586,28.636454631469725,36.12918007220459,30.095323531469727Z" fill="#FFFFFF" fill-opacity="1" style="mix-blend-mode:passthrough"/></g></g></g></svg>