<svg xmlns="http://www.w3.org/2000/svg" xmlns:xlink="http://www.w3.org/1999/xlink" fill="none" version="1.1" width="15" height="18" viewBox="0 0 15 18"><g><g><path d="M3.3140228,18C3.0057175,17.999697,2.7002945,17.941364,2.414093,17.828119C0.94817877,17.232315,-0.0063099642,15.818645,0.000031419091,14.252715L0.000031419091,3.8576715C0.0023061174,1.7276354,1.7499632,0.0016326808,3.9061012,0L11.095039,0C13.25074,0.0022456415,14.997712,1.7280691,14.999986,3.8576715L14.999986,14.252715C15.004135,15.820394,14.046283,17.234213,12.577674,17.828119C11.642867,18.190456,10.579182,17.961264,9.8820086,17.247282L8.1196461,15.488104C7.9575171,15.324184,7.7348018,15.232566,7.5028205,15.234359C7.2710791,15.234314,7.0489063,15.325653,6.8856182,15.488104L5.1232557,17.247282C4.647562,17.728888,3.9951594,18.000313,3.3140228,18Z" fill="#333333" fill-opacity="1" style="mix-blend-mode:passthrough"/></g><g><path d="M11.256905550976562,6.822710657891846L3.7514921409765627,6.822710657891846C3.2894728509765625,6.822710657891846,2.9149322509765625,6.452704657891846,2.9149322509765625,5.996278997891846C2.9149322509765625,5.539852497891846,3.2894728509765625,5.169846492000006,3.7514921409765627,5.169846057891846L11.256905550976562,5.169846057891846C11.718925450976563,5.169846492000006,12.093465850976562,5.539852497891846,12.093465850976562,5.996278997891846C12.093465850976562,6.452704657891846,11.718925450976563,6.822710657891846,11.256905550976562,6.822710657891846Z" fill="#FFFFFF" fill-opacity="1" style="mix-blend-mode:passthrough"/></g></g></svg>