<svg xmlns="http://www.w3.org/2000/svg" xmlns:xlink="http://www.w3.org/1999/xlink" fill="none" version="1.1" width="15.6826171875" height="15.871826171875" viewBox="0 0 15.6826171875 15.871826171875"><defs><linearGradient x1="0.11316633969545364" y1="0.1056424081325531" x2="0.876073693024284" y2="0.7871535680355473" id="master_svg0_235_25208"><stop offset="0%" stop-color="#4CDEFC" stop-opacity="1"/><stop offset="49.958789348602295%" stop-color="#74FFD0" stop-opacity="1"/><stop offset="100.00001192092896%" stop-color="#FFFE8C" stop-opacity="1"/></linearGradient></defs><g transform="matrix(1,-5.2146120310681e-8,5.2146120310681e-8,1,0,0)"><path d="M2.264061,15.660937C2.0437489,15.796874,1.7812481,15.871875,1.5046864,15.871875C0.68437576,15.871875,0.014062881,15.196874,0.014062881,14.367187C0.014062881,14.310937,0.018749237,14.259376,0.0234375,14.207812L0,1.5984373L0.018749237,1.5890627C0.014060974,1.5609369,0.014060974,1.5328131,0.014060974,1.5046873C0.014060974,0.67500019,0.67968559,0,1.5046864,0C1.9499989,0,2.3531227,0.19687557,2.6249981,0.51093769L12.245117,6.1152196L12.245117,1.71875Q12.245117,1.6343133,12.253393,1.5502831Q12.26167,1.4662528,12.278142,1.3834385Q12.294615,1.3006241,12.319126,1.2198232Q12.343637,1.1390222,12.375949,1.0610127Q12.408262,0.98300338,12.448065,0.90853679Q12.487868,0.83407021,12.534779,0.76386356Q12.58169,0.69365698,12.635256,0.62838644Q12.688822,0.56311595,12.748528,0.50341016Q12.808233,0.44370437,12.873504,0.39013827Q12.938774,0.33657211,13.008981,0.28966156Q13.079187,0.24275102,13.153654,0.20294781Q13.228121,0.16314459,13.306129,0.13083203Q13.38414,0.098519489,13.464941,0.074008793Q13.545742,0.049498092,13.628555,0.033025295Q13.71137,0.0165525,13.795402,0.0082762502Q13.879431,0,13.963867,0Q14.048305,0,14.132335,0.0082762502Q14.216366,0.0165525,14.299179,0.033025295Q14.381994,0.049498092,14.462795,0.074008793Q14.543596,0.098519489,14.621604,0.13083203Q14.699614,0.16314459,14.77408,0.2029478Q14.848547,0.24275102,14.918753,0.28966156Q14.98896,0.33657211,15.054232,0.39013827Q15.119501,0.44370437,15.179207,0.50341016Q15.238913,0.56311595,15.29248,0.6283865Q15.346045,0.69365698,15.392955,0.76386356Q15.439866,0.83407021,15.479669,0.90853679Q15.519472,0.98300338,15.551784,1.0610127Q15.584097,1.1390222,15.608608,1.2198232Q15.633118,1.3006241,15.64959,1.3834383Q15.666064,1.4662528,15.674341,1.550283Q15.682617,1.6343133,15.682617,1.71875L15.682617,14.153076Q15.682617,14.237514,15.674341,14.321543Q15.666064,14.405573,15.64959,14.488386Q15.633118,14.571201,15.608606,14.652002Q15.584096,14.732803,15.551783,14.810812Q15.519471,14.888823,15.479668,14.963289Q15.439865,15.037756,15.392954,15.107962Q15.346045,15.178169,15.292479,15.243441Q15.238913,15.30871,15.179206,15.368416Q15.119501,15.428122,15.05423,15.481688Q14.98896,15.535254,14.918752,15.582164Q14.848547,15.629074,14.77408,15.668878Q14.699614,15.70868,14.621603,15.740992Q14.543594,15.773306,14.462794,15.797816Q14.381993,15.822327,14.299178,15.838799Q14.216365,15.855273,14.132335,15.86355Q14.048305,15.871826,13.963867,15.871826Q13.879431,15.871826,13.795402,15.863549Q13.71137,15.855273,13.628556,15.838799Q13.545742,15.822328,13.464941,15.797817Q13.38414,15.773306,13.306129,15.740993Q13.228121,15.708681,13.153654,15.668878Q13.079187,15.629074,13.008981,15.582163Q12.938774,15.535254,12.873504,15.481688Q12.808233,15.428122,12.748528,15.368415Q12.688822,15.30871,12.635256,15.24344Q12.58169,15.178169,12.534779,15.107962Q12.487867,15.037756,12.448065,14.963289Q12.40826,14.888823,12.375948,14.810812Q12.343636,14.732803,12.319125,14.652002Q12.294615,14.571201,12.278141,14.488386Q12.261669,14.405573,12.253393,14.321543Q12.245117,14.237514,12.245117,14.153076L12.245117,9.8476524L2.264061,15.660937Z" fill-rule="evenodd" fill="url(#master_svg0_235_25208)" fill-opacity="0.800000011920929"/></g></svg>