<svg xmlns="http://www.w3.org/2000/svg" xmlns:xlink="http://www.w3.org/1999/xlink" fill="none" version="1.1" width="32" height="32" viewBox="0 0 32 32"><g><g><path d="M32,16Q32,16.392777000000002,31.980726,16.785083999999998Q31.961454,17.177387,31.922956,17.568275Q31.884457,17.959162,31.826824,18.347687Q31.76919,18.736214,31.692562,19.121445Q31.615934,19.506676,31.520496,19.887684Q31.42506,20.268688,31.311043,20.644554Q31.197025,21.020416,31.064701,21.390236Q30.932377,21.760052,30.782068,22.122932Q30.63176,22.485813,30.463825,22.840879Q30.295891,23.195946,30.110737,23.542347Q29.925583,23.888746,29.723654,24.225643Q29.521727,24.562538,29.303511,24.889122Q29.085295,25.215704,28.851318,25.531185Q28.617342,25.846668,28.368168,26.150291Q28.118992,26.453913,27.855217,26.744942Q27.591442,27.035971,27.313707,27.313707Q27.035971,27.591442,26.744942,27.855217Q26.453913,28.118992,26.150291,28.368168Q25.846668,28.617344,25.531187,28.851318Q25.215704,29.085297,24.889122,29.303513Q24.562538,29.521729,24.225643,29.723656Q23.888746,29.925583,23.542347,30.110739Q23.195946,30.295891,22.840881,30.463825Q22.485813,30.63176,22.122932,30.78207Q21.760052,30.932379,21.390236,31.064701Q21.020416,31.197025,20.644554,31.311045Q20.268688,31.42506,19.887682,31.520498Q19.506676,31.615936,19.121445,31.692562Q18.736214,31.76919,18.347689,31.826822Q17.959162,31.884457,17.568275,31.922956Q17.177387,31.961454,16.785083999999998,31.980728Q16.392777000000002,32,16,32Q15.607222,32,15.214917,31.980726Q14.822613,31.961454,14.431726,31.922956Q14.040839,31.884457,13.652312,31.826824Q13.263785,31.76919,12.878554,31.692562Q12.493323,31.615934,12.112316,31.520496Q11.731309,31.42506,11.355444,31.311043Q10.979578,31.197025,10.6097603,31.064701Q10.2399426,30.932377,9.8770638,30.782068Q9.514184,30.63176,9.1591177,30.463825Q8.804050400000001,30.295891,8.4576516,30.110737Q8.1112523,29.925583,7.7743554,29.723654Q7.437458,29.521727,7.1108751,29.303511Q6.7842922,29.085295,6.4688101,28.851318Q6.1533284,28.617342,5.8497071,28.368168Q5.5460854,28.118992,5.2550564,27.855217Q4.9640269,27.591442,4.686291000000001,27.313707Q4.408555,27.035971,4.1447816,26.744942Q3.8810081,26.453913,3.6318326,26.150291Q3.3826568,25.846668,3.1486793,25.531187Q2.9147016,25.215704,2.6964858,24.889122Q2.4782701,24.562538,2.2763419000000003,24.225643Q2.0744137,23.888746,1.88925952,23.542347Q1.70410526,23.195946,1.53617108,22.840881Q1.3682368999999999,22.485813,1.21792731,22.122932Q1.067617722,21.760052,0.935294852,21.390236Q0.80297197,21.020416,0.68895456,20.644554Q0.57493716,20.268688,0.47949993999999996,19.887682Q0.38406264999999995,19.506676,0.30743551,19.121445Q0.23080838000000004,18.736214,0.17317587,18.347689Q0.11554337000000003,17.959162,0.07704436999999997,17.568275Q0.03854542999999999,17.177387,0.01927268999999998,16.785083999999998Q0,16.392777000000002,0,16Q0,15.607222,0.01927274000000001,15.214917Q0.03854542999999999,14.822613,0.07704436999999997,14.431726Q0.11554337000000003,14.040839,0.17317587,13.652312Q0.23080838000000004,13.263785,0.30743557,12.878554Q0.38406277,12.493323,0.47950000000000004,12.112316Q0.57493722,11.731309,0.6889546200000001,11.355444Q0.8029720300000001,10.979578,0.935294911,10.6097603Q1.067617796,10.2399426,1.2179274,9.8770638Q1.36823699,9.514184,1.5361712,9.1591177Q1.7041053800000001,8.804050400000001,1.8892597,8.4576516Q2.0744138000000003,8.1112523,2.276342,7.7743554Q2.4782703,7.437458,2.696486,7.1108751Q2.9147017,6.7842922,3.1486793,6.4688101Q3.3826568,6.1533284,3.6318326,5.8497071Q3.8810081,5.5460854,4.1447818000000005,5.2550564Q4.4085553,4.9640269,4.686291199999999,4.686291000000001Q4.9640269,4.408555,5.2550564,4.1447816Q5.5460854,3.8810081,5.8497071,3.6318326Q6.1533284,3.3826568,6.4688106,3.1486793Q6.7842922,2.9147016,7.1108751,2.6964858Q7.437458,2.4782701,7.7743549,2.2763419000000003Q8.1112523,2.0744137,8.4576516,1.88925952Q8.804050400000001,1.70410526,9.1591167,1.53617108Q9.514184,1.3682368999999999,9.8770638,1.21792731Q10.2399426,1.067617722,10.6097603,0.935294852Q10.979578,0.80297197,11.355444,0.68895456Q11.731309,0.57493716,12.112316,0.47949993999999996Q12.493322,0.38406264999999995,12.878553,0.30743551Q13.263784,0.23080838000000004,13.652311,0.17317587Q14.040838,0.11554337000000003,14.431726,0.07704436999999997Q14.822613,0.03854542999999999,15.214918,0.01927268999999998Q15.607222,0,16,0Q16.392777000000002,0,16.785083999999998,0.01927274000000001Q17.177387,0.03854542999999999,17.568275,0.07704436999999997Q17.959162,0.11554337000000003,18.347687,0.17317587Q18.736214,0.23080838000000004,19.121445,0.30743557Q19.506676,0.38406277,19.887684,0.47950000000000004Q20.268688,0.57493722,20.644554,0.6889546200000001Q21.020416,0.8029720300000001,21.390236,0.935294911Q21.760052,1.067617796,22.122932,1.2179274Q22.485813,1.36823699,22.840879,1.5361712Q23.195946,1.7041053800000001,23.542347,1.8892597Q23.888746,2.0744138000000003,24.225643,2.276342Q24.562538,2.4782703,24.889122,2.696486Q25.215704,2.9147017,25.531185,3.1486793Q25.846668,3.3826568,26.150291,3.6318326Q26.453913,3.8810081,26.744942,4.1447818000000005Q27.035971,4.4085553,27.313707,4.686291199999999Q27.591442,4.9640269,27.855217,5.2550564Q28.118992,5.5460854,28.368168,5.8497071Q28.617344,6.1533284,28.851318,6.4688106Q29.085297,6.7842922,29.303513,7.1108751Q29.521729,7.437458,29.723656,7.7743549Q29.925583,8.1112523,30.110739,8.4576516Q30.295891,8.804050400000001,30.463825,9.1591167Q30.63176,9.514184,30.78207,9.8770638Q30.932379,10.2399426,31.064701,10.6097603Q31.197025,10.979578,31.311045,11.355444Q31.42506,11.731309,31.520498,12.112316Q31.615936,12.493322,31.692562,12.878553Q31.76919,13.263784,31.826822,13.652311Q31.884457,14.040838,31.922956,14.431726Q31.961454,14.822613,31.980728,15.214918Q32,15.607222,32,16ZM31,16Q31,15.631771,30.98193,15.263985Q30.963863,14.896199,30.927771,14.529743Q30.891678,14.163286,30.837646,13.799043Q30.783615,13.434798,30.711777,13.073645Q30.639938,12.71249,30.550465,12.355297Q30.460995,11.998103,30.354103,11.64573Q30.247211,11.293356,30.123158,10.9466515Q29.999104,10.599947,29.858189,10.2597475Q29.717274,9.919548,29.559835,9.5866728Q29.402399,9.2537975,29.228817,8.9290481Q29.055233,8.6042986,28.865925,8.288457900000001Q28.676617,7.9726171,28.47204,7.6664457Q28.267464,7.3602743,28.048109,7.0645099Q27.828756,6.7687454,27.595156,6.4841008Q27.361553,6.1994553,27.114265,5.9266152Q26.866978,5.6537752,26.6066,5.3933978Q26.346222,5.1330204,26.073381,4.8857327Q25.800541,4.6384449,25.515896,4.4048429Q25.231251,4.1712403,24.935486,3.9518862Q24.639721,3.7325325,24.333549,3.5279553Q24.027378,3.3233781,23.711538,3.1340704Q23.395699,2.9447627,23.07095,2.7711809Q22.746201,2.5975988,22.413324,2.4401605Q22.080448,2.2827221,21.74025,2.1418068Q21.400051,2.0008916,21.053345,1.8768388599999999Q20.706642,1.7527861599999999,20.354269,1.64589489Q20.001896,1.5390035499999999,19.644701,1.44953114Q19.287506,1.3600587,18.926353,1.28822073Q18.565201,1.21638277,18.200958,1.16235231Q17.836716,1.10832187,17.470259,1.072229087Q17.103802,1.036136307,16.736015000000002,1.018068153Q16.368229,1,16,1Q15.631771,1,15.263985,1.018068153Q14.896199,1.036136307,14.529743,1.072229087Q14.163286,1.10832187,13.799043,1.16235232Q13.434798,1.21638277,13.073645,1.28822073Q12.71249,1.3600587,12.355297,1.4495311100000001Q11.998103,1.5390035499999999,11.64573,1.64589489Q11.293356,1.7527861599999999,10.9466515,1.8768388599999999Q10.599947,2.0008916,10.2597475,2.1418068Q9.919548,2.2827221,9.5866728,2.4401604Q9.2537975,2.5975988,8.9290481,2.7711809Q8.6042986,2.9447628999999997,8.288457900000001,3.1340706Q7.9726171,3.3233781,7.6664457,3.5279555Q7.3602743,3.7325325,7.0645099,3.9518867Q6.7687454,4.1712406,6.4841008,4.4048429Q6.1994553,4.6384449,5.9266152,4.8857327Q5.6537752,5.1330204,5.3933978,5.3933978Q5.1330204,5.6537752,4.8857327,5.9266152Q4.6384449,6.1994553,4.4048429,6.4841003Q4.1712403,6.7687454,3.9518862,7.0645099Q3.7325325,7.3602743,3.5279553,7.6664457Q3.3233781,7.9726171,3.1340704,8.288457900000001Q2.9447627,8.6042986,2.7711809,8.9290485Q2.5975988,9.2537975,2.4401605,9.5866728Q2.2827221,9.919548,2.1418068,10.2597475Q2.0008916,10.599947,1.8768388599999999,10.9466515Q1.7527861599999999,11.293356,1.64589489,11.645729Q1.5390035499999999,11.998102,1.44953114,12.355297Q1.3600587,12.71249,1.28822073,13.073645Q1.21638277,13.434798,1.16235231,13.799042Q1.10832187,14.163286,1.072229087,14.529743Q1.036136307,14.896199,1.018068153,15.263985Q1,15.631771,1,16Q1,16.368229,1.018068153,16.736015000000002Q1.036136307,17.103802,1.072229087,17.470257Q1.10832187,17.836714,1.16235232,18.200958Q1.21638277,18.565201,1.28822073,18.926353Q1.3600587,19.287506,1.4495311100000001,19.644701Q1.5390035499999999,20.001896,1.64589489,20.354269Q1.7527861599999999,20.706642,1.8768388599999999,21.053345Q2.0008916,21.400049,2.1418068,21.740248Q2.2827221,22.080448,2.4401604,22.413324Q2.5975988,22.746201,2.7711809,23.07095Q2.9447628999999997,23.395699,3.1340706,23.711538Q3.3233781,24.027378,3.5279555,24.333549Q3.7325325,24.639721,3.9518867,24.935486Q4.1712406,25.231251,4.4048429,25.515896Q4.6384449,25.800541,4.8857327,26.07338Q5.1330204,26.34622,5.3933978,26.606598Q5.6537752,26.866974,5.9266152,27.114262Q6.1994553,27.361549,6.4841003,27.595154Q6.7687454,27.828754,7.0645099,28.048109Q7.3602743,28.267464,7.6664457,28.47204Q7.9726171,28.676617,8.288457900000001,28.865925Q8.6042986,29.055233,8.9290485,29.228817Q9.2537975,29.402399,9.5866728,29.559837Q9.919548,29.717274,10.2597475,29.858189Q10.599947,29.999104,10.9466515,30.123156Q11.293356,30.24721,11.645729,30.354101Q11.998102,30.460993,12.355297,30.550467Q12.71249,30.639938,13.073645,30.711777Q13.434798,30.783615,13.799042,30.837646Q14.163286,30.891678,14.529743,30.927771Q14.896199,30.963863,15.263985,30.98193Q15.631771,31,16,31Q16.368229,31,16.736015000000002,30.98193Q17.103802,30.963863,17.470257,30.927771Q17.836714,30.891678,18.200958,30.837646Q18.565201,30.783615,18.926353,30.711777Q19.287506,30.639938,19.644701,30.550465Q20.001896,30.460995,20.354269,30.354103Q20.706642,30.247211,21.053345,30.123158Q21.400049,29.999104,21.740248,29.858189Q22.080448,29.717274,22.413324,29.559835Q22.746201,29.402399,23.07095,29.228817Q23.395699,29.055233,23.711538,28.865925Q24.027378,28.676617,24.333549,28.47204Q24.639721,28.267464,24.935486,28.048109Q25.231251,27.828756,25.515896,27.595156Q25.800541,27.361553,26.07338,27.114265Q26.34622,26.866978,26.606598,26.6066Q26.866974,26.346222,27.114262,26.073381Q27.361549,25.800541,27.595154,25.515896Q27.828754,25.231251,28.048109,24.935486Q28.267464,24.639721,28.47204,24.333549Q28.676617,24.027378,28.865925,23.711538Q29.055233,23.395699,29.228817,23.07095Q29.402399,22.746201,29.559837,22.413324Q29.717274,22.080448,29.858189,21.74025Q29.999104,21.400051,30.123156,21.053345Q30.24721,20.706642,30.354101,20.354269Q30.460993,20.001896,30.550467,19.644701Q30.639938,19.287506,30.711777,18.926353Q30.783615,18.565201,30.837646,18.200958Q30.891678,17.836716,30.927771,17.470259Q30.963863,17.103802,30.98193,16.736015000000002Q31,16.368229,31,16Z" fill="#DDDDDD" fill-opacity="1"/></g><g><path d="M19.4656668,23.000000999999997L19.3976612,23.000000999999997C17.7975245,22.916,15.6363387,21.331999,13.614165100000001,18.7660007L12.8681006,17.8240004C10.84592706,15.2580004,9.78683613,12.7510004,10.035857417,11.1210001C10.20987245,9.97100008,11.8390123,9,12.7700925,9C13.2281315,9,13.3951461,9.23900002,13.4551508,9.38300008C13.9781961,10.368,14.630251900000001,12.0770001,14.6352525,12.689999799999999L14.6352525,12.733L14.6202517,12.7740002C14.5032415,13.096000199999999,14.244218799999999,13.250000499999999,14.0141993,13.3870001C13.7111728,13.567000400000001,13.5401587,13.6840005,13.5181565,14.0230007C13.513155900000001,14.125000499999999,13.5971634,14.5939999,14.930277799999999,16.3180008L15.500326600000001,17.0410004C16.8384414,18.6990004,17.2584772,18.877000799999998,17.3554864,18.8910007C17.678514,18.9400005,17.8325267,18.795001,18.0635481,18.526001C18.239562,18.319001200000002,18.439579000000002,18.090001100000002,18.7686071,18.040000900000003L18.8126106,18.032000500000002L18.8526144,18.046000499999998C19.4366636,18.1710014,20.922792,19.179000000000002,21.772866,19.929002C21.892878,20.012999999999998,22.105895,20.267001,21.937879000000002,20.824002999999998C21.673856999999998,21.699001000000003,20.520758,23.000000999999997,19.4656668,23.000000999999997Z" fill="#DDDDDD" fill-opacity="1" style="mix-blend-mode:passthrough"/></g></g></svg>