<svg xmlns="http://www.w3.org/2000/svg" xmlns:xlink="http://www.w3.org/1999/xlink" fill="none" version="1.1" width="37" height="23" viewBox="0 0 37 23"><g><g><path d="M2.3636358,18.074518C1.0582356,18.074518,0,17.00415,0,15.683784L0,7.3162155C-1.4675383e-7,5.9958496,1.0582356,4.9254823,2.3636358,4.9254818L7.0909076,4.9254818L12.043053,0.58397567C12.742561,-0.029101824,13.731491,-0.17279142,14.573336,0.21633045C15.415179,0.6054526,15.955007,1.4557735,15.954543,2.3919675L15.954543,20.609692C15.954366,21.545586,15.414297,22.395311,14.57259,22.784016C13.730883,23.172718,12.742337,23.028904,12.043053,22.416021L7.0909076,18.074518L2.3636358,18.074518Z" fill="#33E11F" fill-opacity="1" style="mix-blend-mode:passthrough"/></g><g><g><rect x="19" y="9" width="2" height="4" rx="1" fill="#33E11F" fill-opacity="1"/></g><g transform="matrix(-1,0,0,-1,74,26)"><rect x="37" y="13" width="2" height="4" rx="1" fill="#33E11F" fill-opacity="1"/></g><g><rect x="23" y="8" width="2" height="8" rx="1" fill="#33E11F" fill-opacity="1"/></g><g transform="matrix(-1,0,0,-1,66,32)"><rect x="33" y="16" width="2" height="8" rx="1" fill="#33E11F" fill-opacity="1"/></g><g><rect x="27" y="4" width="2" height="15" rx="1" fill="#33E11F" fill-opacity="1"/></g></g></g></svg>