<svg xmlns="http://www.w3.org/2000/svg" xmlns:xlink="http://www.w3.org/1999/xlink" fill="none" version="1.1" width="60" height="60" viewBox="0 0 60 60"><g><g><ellipse cx="30" cy="30" rx="30" ry="30" fill="#000000" fill-opacity="0.4000000059604645"/></g><g transform="matrix(0,1,-1,0,61.034173011779785,-29.999999046325684)"><path d="M72.64144102905274,36.51708698272705Q72.67421302905274,36.57385198272705,72.69929902905274,36.634405982727046Q72.72438002905274,36.69496298272705,72.74134402905273,36.758270982727055Q72.75830802905273,36.821581982727054,72.76686502905274,36.88656298272705Q72.77541702905273,36.95154698272705,72.77541702905273,37.01708698272705Q72.77541702905273,37.08263098272705,72.76686502905274,37.14761398272705Q72.75831002905274,37.21259798272705,72.74134602905274,37.27590698272705Q72.72438202905273,37.33921698272705,72.69929902905274,37.399771982727046Q72.67421702905273,37.46032398272705,72.64144302905274,37.51708698272705Q72.60867302905274,37.573849982727054,72.56877302905274,37.62585198272705Q72.52887302905273,37.677849982727054,72.48252502905274,37.72419598272705Q72.43618002905274,37.77054298272705,72.38418002905274,37.81044098272705Q72.33218002905274,37.85034298272705,72.27541702905273,37.883112982727056Q72.21865502905274,37.91588498272705,72.15810202905274,37.94096898272705Q72.09754802905273,37.96604998272705,72.03423702905273,37.98301398272705Q71.97092802905274,37.999977982727046,71.90594502905273,38.00853298272705Q71.84096102905274,38.01708698272705,71.77541702905273,38.01708698272705L49.258756129052735,38.01708698272705Q49.19321272905273,38.01708698272705,49.12823012905273,38.00853298272705Q49.06324742905274,37.999977982727046,48.999937329052734,37.98301598272705Q48.936627429052734,37.96604998272705,48.87607292905273,37.94096898272705Q48.815518829052735,37.91588498272705,48.75875642905273,37.883112982727056Q48.70199392905273,37.85034298272705,48.64999482905274,37.81044098272705Q48.597995729052734,37.770540982727056,48.55164952905273,37.724194982727056Q48.50530342905273,37.677849982727054,48.46540312905273,37.62584998272705Q48.425502529052736,37.573849982727054,48.39273072905274,37.51708698272705Q48.35995912905273,37.46032398272705,48.33487672905274,37.399771982727046Q48.30979442905274,37.33921698272705,48.292830429052735,37.27590698272705Q48.275866529052735,37.21259798272705,48.26731152905273,37.14761398272705Q48.258756129052735,37.08263098272705,48.258756129052735,37.01708698272705Q48.258756129052735,36.95154698272705,48.26731152905273,36.88656298272705Q48.275866529052735,36.821581982727054,48.292830429052735,36.758270982727055Q48.30979442905274,36.69496298272705,48.33487672905274,36.634405982727046Q48.35995912905273,36.57385198272705,48.39273072905274,36.51708698272705L59.65106202905274,17.01708698272705Q59.68383402905273,16.96032478272705,59.72373502905273,16.90832568272705Q59.76363602905273,16.85632638272705,59.80998202905273,16.809980182727053Q59.85632902905273,16.76363398272705,59.908327029052735,16.72373368272705Q59.96032602905274,16.68383338272705,60.017088029052736,16.65106158272705Q60.07385102905273,16.61828978272705,60.13440402905273,16.593207482727053Q60.194958029052735,16.56812498272705,60.258268029052736,16.55116118272705Q60.321579029052735,16.53419728272705,60.38656002905273,16.52564218272705Q60.451544029052734,16.51708698272705,60.51708702905273,16.51708698272705Q60.582631029052735,16.51708698272705,60.647613029052735,16.52564218272705Q60.71259702905273,16.53419728272705,60.77590702905273,16.55116128272705Q60.839216029052736,16.568125282727053,60.89977102905274,16.59320758272705Q60.960324029052735,16.61828998272705,61.017086029052734,16.65106178272705Q61.07384902905274,16.68383358272705,61.12584902905273,16.72373388272705Q61.17784902905274,16.76363418272705,61.22419502905274,16.80998038272705Q61.270542029052734,16.85632658272705,61.31044102905273,16.90832568272705Q61.350341029052736,16.96032488272705,61.38311202905273,17.017087082727052L72.64144102905274,36.51708698272705Z" fill="#FFFFFF" fill-opacity="1"/></g></g></svg>