<svg xmlns="http://www.w3.org/2000/svg" xmlns:xlink="http://www.w3.org/1999/xlink" fill="none" version="1.1" width="20" height="29" viewBox="0 0 20 29"><defs><linearGradient x1="0.5" y1="0.7758620977401733" x2="0.5237896289009353" y2="-0.5521936457501582" id="master_svg0_69_56733"><stop offset="0%" stop-color="#FFFFFF" stop-opacity="1"/><stop offset="100%" stop-color="#FFFFFF" stop-opacity="0"/></linearGradient><linearGradient x1="0.5" y1="0.7758620977401733" x2="0.5215777702236518" y2="-0.5521859328788563" id="master_svg1_69_56733"><stop offset="0%" stop-color="#FFFFFF" stop-opacity="1"/><stop offset="100%" stop-color="#FFFFFF" stop-opacity="0"/></linearGradient></defs><g><g><path d="M10.714286,0C15.842856,0,20,3.8359749,20,8.5680485L20,20.431948C20,25.164024,15.842858,29,10.714286,29L9.2857141,29C4.1571431,29,0,25.164024,0,20.431952L0,8.5680504C7.0957913e-7,3.8359749,4.1571431,0,9.2857161,0L10.714286,0ZM10.714286,1.8125L9.2857141,1.8125C5.1857133,1.8125,1.8535711,4.8524251,1.7867855,8.62605L1.785714,8.7420502L1.785714,20.620813C1.785714,24.408937,5.0760708,27.487288,9.1607132,27.548912L9.2857161,27.549999L10.714287,27.549999C14.814288,27.549999,18.146429,24.510075,18.213215,20.73645L18.214285,20.620451L18.214285,8.7420502C18.214285,4.9539256,14.923928,1.8755753,10.839285,1.8139502L10.714286,1.8125Z" fill="url(#master_svg0_69_56733)" fill-opacity="1" style="mix-blend-mode:passthrough"/></g><g><path d="M9.999891555865478,6.1626176834106445C11.577849355865478,6.1626176834106445,12.85703615586548,7.4609913834106445,12.85703465586548,9.062617083410645L12.85703465586548,11.962616883410645C12.85703615586548,13.564244283410645,11.577849355865478,14.862618483410644,9.999892955865478,14.862618483410644C8.421935055865479,14.862618483410644,7.142749775023779,13.564244283410645,7.1427483558654785,11.962616883410645L7.1427483558654785,9.062617083410645C7.142749775023779,7.4609913834106445,8.421935055865479,6.1626176834106445,9.999891555865478,6.1626176834106445ZM9.999891555865478,7.975118083410645C9.43254875586548,7.975085583410644,8.963532655865478,8.423958083410644,8.93024905586548,8.998818183410645L8.928462355865479,9.062617083410645L8.928462355865479,11.962616883410645C8.927907455865478,12.551204683410646,9.388811855865479,13.033418183410644,9.968451455865479,13.050690683410645C10.548089455865478,13.067963083410644,11.036068455865479,12.614024183410645,11.069533555865478,12.026417283410645L11.071320555865478,11.962616883410645L11.071320555865478,9.062617083410645C11.071320555865478,8.462007283410644,10.591624955865479,7.975117283410644,9.999891555865478,7.975118083410645Z" fill="url(#master_svg1_69_56733)" fill-opacity="1" style="mix-blend-mode:passthrough"/></g></g></svg>