<svg xmlns="http://www.w3.org/2000/svg" xmlns:xlink="http://www.w3.org/1999/xlink" fill="none" version="1.1" width="26" height="26" viewBox="0 0 26 26"><g><g><ellipse cx="13" cy="13" rx="13" ry="13" fill="#A71818" fill-opacity="0"/></g><g><g><g><path d="M17.366061000000002,23L8.6339378,23C5.5261382999999995,23,3,20.473557,3,17.367787999999997L3,8.6322112C3,5.526442100000001,5.5261382999999995,3,8.6339378,3L13.791971,3C14.272682,3,14.662059,3.3894231,14.662059,3.87019229C14.662059,4.3509614,14.272682,4.7403846000000005,13.791971,4.7403846000000005L8.6339378,4.7403846000000005C6.4875617000000005,4.7403846000000005,4.7401755,6.4879808,4.7401755,8.634614899999999L4.7401755,17.367787999999997C4.7401755,19.514423,6.4875617000000005,21.262018,8.6339378,21.262018L17.366061000000002,21.262018C19.512436,21.262018,21.259825,19.514423,21.259825,17.367787999999997L21.259825,11.8100958C21.259825,11.3293266,21.6492,10.9399042,22.129911,10.9399042C22.610624,10.9399042,23,11.3293266,23,11.8100958L23,17.367787999999997C22.997593,20.473557,20.471457,23,17.366061000000002,23Z" fill="#666666" fill-opacity="1" style="mix-blend-mode:passthrough"/></g><g><path d="M12.998557810500488,13.87019255192871C12.875976030500489,13.87019255192871,12.750991220500488,13.84374995192871,12.630813360500488,13.788461651928712C12.195769153500489,13.58413505192871,12.008292490500489,13.067307451928711,12.210190892500489,12.632211651928712C12.330368740500488,12.374999051928711,15.219444000500488,6.314903451928711,21.45427040050049,4.235576480928711C21.91094680050049,4.081730241928711,22.403676200500488,4.329326571928711,22.555099200500486,4.786057291928711C22.706522200500487,5.242788051928711,22.461361200500487,5.733172751928711,22.004685400500488,5.887018451928711C16.469292600500488,7.733172451928711,13.810959200500488,13.312499051928711,13.78451970050049,13.370190651928711C13.637902400500488,13.685095751928712,13.325439900500488,13.87019255192871,12.998557810500488,13.87019255192871Z" fill="#666666" fill-opacity="1" style="mix-blend-mode:passthrough"/></g><g><path d="M22.12771941331787,5.5338677999999994C22.05801651331787,5.5338677999999994,21.98590941331787,5.5266562,21.91620681331787,5.5074258L18.74110764331787,4.7141565C18.27481798331787,4.5987719,17.99119707931787,4.1252142,18.108972937317873,3.6588679600000003C18.226746843317873,3.19252166,18.700248363317872,2.908867858,19.16413401331787,3.026656421L22.33923341331787,3.81992567C22.805522913317873,3.93531018,23.08914371331787,4.408868,22.97136831331787,4.8752141C22.87282181331787,5.2694447,22.51709601331787,5.5338677999999994,22.12771941331787,5.5338677999999994Z" fill="#666666" fill-opacity="1" style="mix-blend-mode:passthrough"/></g></g><g><path d="M21.733537021865235,8.312611853860474C21.692675771865233,8.312611853860474,21.651816551865235,8.310207653860473,21.608551321865235,8.302996353860474C21.132647811865233,8.235687953860474,20.803359690865236,7.795784753860474,20.870658509465233,7.3198232538604735L21.267247381865236,4.540977183860473C21.334546181865235,4.065015703860474,21.774398331865235,3.735688749860474,22.250301861865236,3.8029963849604735C22.726205261865235,3.8703040258604737,23.055493361865235,4.3102077838604735,22.988194461865234,4.786169233860473L22.591607661865233,7.565014853860474C22.529114761865234,8.000111353860474,22.156563561865234,8.312611853860474,21.733537021865235,8.312611853860474Z" fill="#666666" fill-opacity="1" style="mix-blend-mode:passthrough"/></g></g></g></svg>