<svg xmlns="http://www.w3.org/2000/svg" xmlns:xlink="http://www.w3.org/1999/xlink" fill="none" version="1.1" width="14.327842980774108" height="15.355106474357342" viewBox="0 0 14.327842980774108 15.355106474357342"><defs><linearGradient x1="1" y1="-0.06212036311626434" x2="0.5966383498324833" y2="1.0355129564341772" id="master_svg0_180_6599"><stop offset="0%" stop-color="#33E11F" stop-opacity="1"/><stop offset="100%" stop-color="#F9DAFD" stop-opacity="1"/></linearGradient></defs><g transform="matrix(0.962380051612854,0.2717066705226898,0.2717066705226898,-0.962380051612854,-3.339151369510436,24.116758062058018)"><path d="M3.5112288,20.395150156390464C3.9564321,21.905426056390468,3.8100879,23.507653056390467,3.7399781,25.059494056390466C4.1446018,24.520380056390465,4.4557414,23.917026056390466,4.8394523,23.364057056390465C5.5072656,22.362665056390465,6.16646,21.242871256390465,7.2843852,20.713831856390467C8.5425138,20.149527556390467,9.9408474,20.144487356390467,11.282614,19.987035756390465C10.763624,19.610413056390467,10.172059,19.359747856390467,9.6481447,18.991942356390467C8.8118439,18.488096756390465,8.0272017,17.785233456390465,7.7308197,16.806513756390466C7.2806926,15.344104256390466,7.5475736,13.791002956390466,7.5401878,12.289545056390466C7.1244998,12.760640056390466,6.9080448,13.370292256390465,6.5390925,13.877916256390467C5.8577528,14.922134856390466,5.103857,16.035631856390467,3.9244401,16.524361156390466C2.6896708,17.106301256390466,1.2999548,16.827927556390467,0,17.039542156390468C0.48210469,17.336811056390466,1.0072359,17.566061456390464,1.4426061,17.938906156390466C2.269058,18.609019256390468,3.2123547,19.301806456390466,3.5112288,20.395150156390464Z" fill="url(#master_svg0_180_6599)" fill-opacity="1" style="mix-blend-mode:passthrough"/></g></svg>