<svg xmlns="http://www.w3.org/2000/svg" xmlns:xlink="http://www.w3.org/1999/xlink" fill="none" version="1.1" width="26" height="23" viewBox="0 0 26 23"><g><path d="M2.3636358,18.074518C1.0582356,18.074518,0,17.00415,0,15.683784L0,7.3162155C-1.4675383e-7,5.9958496,1.0582356,4.9254823,2.3636358,4.9254818L7.0909076,4.9254818L12.043053,0.58397567C12.742561,-0.029101824,13.731491,-0.17279142,14.573336,0.21633045C15.415179,0.6054526,15.955007,1.4557735,15.954543,2.3919675L15.954543,20.609692C15.954366,21.545586,15.414297,22.395311,14.57259,22.784016C13.730883,23.172718,12.742337,23.028904,12.043053,22.416021L7.0909076,18.074518L2.3636358,18.074518ZM22.122976,3.0311568C24.576351,5.0164957,26.003164,8.0232029,25.999996,11.201158C26.003164,14.379113,24.576351,17.38582,22.122976,19.371157C21.740675,19.669159,21.192917,19.602991,20.890749,19.222307C20.588583,18.841625,20.643097,18.286381,21.01338,17.973242C23.047966,16.328295,24.231199,13.835705,24.22809,11.201156C24.230961,8.5666628,23.047773,6.0741744,21.01338,4.42907C20.620176,4.1225696,20.552483,3.5492251,20.863268,3.157685C21.174049,2.7661457,21.74213,2.7090857,22.122976,3.0311568ZM18.804859,6.5674505C20.522598,7.7088604,21.568178,9.5201721,21.568178,11.499999C21.568178,13.479826,20.522598,15.291138,18.804859,16.432547C18.395538,16.723728,17.829212,16.61467,17.55431,16.191729C17.279408,15.768788,17.404938,15.199672,17.831501,14.935019C19.068306,14.111545,19.79545,12.851428,19.79545,11.499999C19.79545,10.147739,19.068306,8.8876247,17.831501,8.0649796C17.404938,7.8003268,17.279408,7.2312102,17.55431,6.808269C17.829212,6.3853278,18.395538,6.2762704,18.804859,6.5674505Z" fill="#000000" fill-opacity="1" style="mix-blend-mode:passthrough"/></g></svg>