<svg xmlns="http://www.w3.org/2000/svg" xmlns:xlink="http://www.w3.org/1999/xlink" fill="none" version="1.1" width="12" height="7" viewBox="0 0 12 7"><g transform="matrix(-1,0,0,-1,24,14)"><path d="M23.765855000000002,7.45875379L23.540143,7.23334377C23.227669,6.922218554,22.721422,6.922218554,22.409058,7.23334377L17.9998999,11.6261468L13.5907134,7.23334377C13.278349200000001,6.922218554,12.77210176,6.922218554,12.46021831,7.23334377L12.23394346,7.45875379C11.922018863,7.7698510899999995,11.922018863,8.2742566,12.23394346,8.5848619L17.2067151,13.5396214C17.2071543,13.540184,17.2076216,13.5411401,17.2081985,13.5417171L17.4343495,13.766677399999999C17.7462463,14.077774,18.2524939,14.077774,18.5649681,13.766677399999999L18.791119600000002,13.5417171C18.791709400000002,13.5411544,18.7921767,13.5401983,18.792603,13.5396214L23.764824,8.5848613C24.078219,8.274257200000001,24.078219,7.7698510899999995,23.765855000000002,7.45875379Z" fill="#000000" fill-opacity="1" style="mix-blend-mode:passthrough"/></g></svg>