<svg xmlns="http://www.w3.org/2000/svg" xmlns:xlink="http://www.w3.org/1999/xlink" fill="none" version="1.1" width="48" height="48" viewBox="0 0 48 48"><defs><linearGradient x1="0.5" y1="-0.24137930572032928" x2="0.5" y2="1.2931034564971924" id="master_svg0_10_00758"><stop offset="0%" stop-color="#66FF00" stop-opacity="1"/><stop offset="97.19101190567017%" stop-color="#3F67F6" stop-opacity="1"/><stop offset="100%" stop-color="#0D62F4" stop-opacity="1"/></linearGradient></defs><g><g><g><g><ellipse cx="24" cy="24" rx="24" ry="24" fill="url(#master_svg0_10_00758)" fill-opacity="1"/></g></g></g><g><path d="M23.95762757220459,11.40082340239459Q26.57842657220459,11.37202334420459,28.88242657220459,12.35122341220459Q31.18642357220459,13.33042337220459,32.92882457220459,15.015223472204589Q34.671227572204586,16.70002367220459,35.67922457220459,18.98962307220459Q36.68722257220459,21.279222472204587,36.716025572204586,23.90002257220459Q36.74482457220459,26.37682257220459,35.86642557220459,28.56562357220459Q34.98802657220459,30.75442257220459,33.41842357220459,32.43922557220459Q31.84882257220459,34.124026572204585,29.73202257220459,35.21842457220459Q27.61522357220459,36.31282357220459,25.16722257220459,36.57202657220459Q24.53362357220459,36.65842557220459,23.81362357220459,36.716025572204586Q23.093622572204588,36.773625572204594,22.21522357220459,36.80242657220459Q21.33682437220459,36.83122757220459,20.25682257220459,36.80242657220459Q19.17682267220459,36.773625572204594,17.82322307220459,36.629628572204595Q14.82802267220459,36.34162657220459,13.37362327220459,35.880825572204586Q11.91922372220459,35.420025572204594,12.20722353220459,35.362427572204595Q13.73362327220459,35.103228572204586,14.82802347220459,34.52722857220459Q15.404023672204591,34.21042957220459,15.30322337220459,33.62002857220459Q15.20242287220459,33.02962757220459,14.74162367220459,32.51122757220459Q13.27282357220459,30.89842857220459,12.36562347220459,28.75282757220459Q11.458423376204589,26.60722757220459,11.40082340239459,24.13042657220459Q11.37202334420459,21.50962657220459,12.35122341220459,19.20562747220459Q13.33042337220459,16.90162707220459,15.02962327220459,15.17362737220459Q16.72882317220459,13.44562797220459,19.03282307220459,12.43762747220459Q21.33682347220459,11.42962689520459,23.95762757220459,11.40082340239459ZM29.57362657220459,24.07282357220459Q29.57362657220459,24.82162257220459,30.09202457220459,25.35442257220459Q30.61042457220459,25.88722357220459,31.35922557220459,25.88722357220459Q32.10802557220459,25.88722357220459,32.64082657220459,25.35442257220459Q33.17362657220459,24.82162257220459,33.17362657220459,24.07282357220459Q33.17362657220459,23.324023572204588,32.64082657220459,22.80562357220459Q32.10802557220459,22.28722257220459,31.35922557220459,22.28722257220459Q30.61042457220459,22.28722257220459,30.09202457220459,22.80562357220459Q29.57362657220459,23.324023572204588,29.57362657220459,24.07282357220459ZM22.34482657220459,24.07282357220459Q22.34482657220459,24.82162257220459,22.89202657220459,25.36882257220459Q23.43922757220459,25.91602257220459,24.18802757220459,25.91602257220459Q24.96562757220459,25.91602257220459,25.49842757220459,25.36882257220459Q26.031227572204592,24.82162257220459,26.031227572204592,24.07282357220459Q26.031227572204592,23.29522357220459,25.49842757220459,22.762422572204592Q24.96562757220459,22.22962257220459,24.18802757220459,22.22962257220459Q23.43922757220459,22.22962257220459,22.89202657220459,22.762422572204592Q22.34482657220459,23.29522357220459,22.34482657220459,24.07282357220459ZM15.20242527220459,24.04402257220459Q15.20242527220459,24.792822572204592,15.735225672204589,25.34002257220459Q16.26802587220459,25.88722357220459,17.01682567220459,25.88722357220459Q17.794424972204588,25.88722357220459,18.32722517220459,25.34002257220459Q18.860025872204588,24.792822572204592,18.860025872204588,24.04402257220459Q18.860025872204588,23.29522357220459,18.32722517220459,22.762422572204592Q17.794424972204588,22.22962257220459,17.01682567220459,22.22962257220459Q16.26802537220459,22.22962257220459,15.735225672204589,22.762422572204592Q15.20242597220459,23.29522357220459,15.20242527220459,24.04402257220459Z" fill="#FFFFFF" fill-opacity="1" style="mix-blend-mode:passthrough"/></g></g></svg>